<svg width="199" height="47" viewBox="0 0 199 47" fill="none" xmlns="http://www.w3.org/2000/svg">
<path fill-rule="evenodd" clip-rule="evenodd" d="M37.0722 8.07271C37.0722 8.3413 36.8454 8.55269 36.5775 8.5338C32.153 8.22189 22.2387 8.16139 18.3903 8.54744C14.3909 8.94863 10.6382 10.6672 7.72172 13.433C4.80523 16.1989 2.89029 19.8553 2.27777 23.8278C1.66525 27.8002 2.38987 31.8637 4.33777 35.3796C6.28567 38.8954 9.34646 41.6646 13.0392 43.2518C16.732 44.8391 20.8474 45.1545 24.7389 44.1485C28.6305 43.1425 32.0775 40.8722 34.5384 37.6942C36.9055 34.6374 38.2313 30.9074 38.3289 27.0504C38.3353 26.7969 38.5403 26.5912 38.7938 26.5912H39.9416C40.1951 26.5912 40.4012 26.7969 40.3955 27.0503C40.2974 31.3653 38.8194 35.5402 36.1719 38.9591C33.4306 42.4992 29.5909 45.0281 25.256 46.1487C20.9212 47.2693 16.3369 46.9179 12.2234 45.1499C8.10995 43.3818 4.70046 40.2972 2.53064 36.3808C0.360828 32.4643 -0.446341 27.938 0.235959 23.5129C0.918259 19.0879 3.05136 15.0149 6.3001 11.934C9.54885 8.85302 13.7291 6.93871 18.1841 6.49181C23.7022 5.93827 31.9667 6.14768 36.6478 6.47498C36.8874 6.49174 37.0722 6.69143 37.0722 6.93166V8.07271Z" fill="#33394E"/>
<path d="M10.4353 32.9038C10.1818 32.9038 9.97621 32.6983 9.97621 32.4447V22.6017C9.97621 22.3481 9.77066 22.1426 9.51711 22.1426H6.35851C6.10496 22.1426 5.89941 21.937 5.89941 21.6835V20.5082C5.89941 20.2546 6.10496 20.0491 6.35851 20.0491H15.871C16.1246 20.0491 16.3301 20.2546 16.3301 20.5082V21.6835C16.3301 21.937 16.1246 22.1426 15.871 22.1426H12.7124C12.4589 22.1426 12.2533 22.3481 12.2533 22.6017V32.4447C12.2533 32.6983 12.0478 32.9038 11.7942 32.9038H10.4353Z" fill="#33394E"/>
<path d="M31.3766 31.1776C30.1034 32.4753 28.4935 33.1242 26.5469 33.1242C24.6004 33.1242 22.9966 32.4815 21.7356 31.196C20.4746 29.9105 19.8441 28.3373 19.8441 26.4764C19.8441 24.6401 20.4807 23.073 21.7539 21.7753C23.0272 20.4776 24.6371 19.8287 26.5837 19.8287C28.5302 19.8287 30.134 20.4714 31.395 21.7569C32.656 23.0424 33.2865 24.6156 33.2865 26.4764C33.2865 28.3128 32.6499 29.8799 31.3766 31.1776ZM23.4434 29.7269C24.2759 30.6083 25.3227 31.0491 26.5837 31.0491C27.8446 31.0491 28.8791 30.6083 29.6872 29.7269C30.5074 28.8454 30.9175 27.7619 30.9175 26.4764C30.9175 25.2032 30.5013 24.1259 29.6688 23.2444C28.8485 22.3507 27.8079 21.9038 26.5469 21.9038C25.2859 21.9038 24.2453 22.3446 23.4251 23.226C22.617 24.1075 22.213 25.191 22.213 26.4764C22.213 27.7497 22.6232 28.8332 23.4434 29.7269Z" fill="#33394E"/>
<path d="M43.6733 33.1058C41.9716 33.1058 40.631 32.6222 39.6516 31.6551C38.6844 30.6879 38.2009 29.2861 38.2009 27.4497V20.5082C38.2009 20.2546 38.4064 20.0491 38.66 20.0491H40.0005C40.2541 20.0491 40.4596 20.2546 40.4596 20.5082V27.3579C40.4596 28.5332 40.7473 29.4392 41.3227 30.0758C41.8981 30.7124 42.6939 31.0307 43.71 31.0307C44.7262 31.0307 45.5158 30.7246 46.079 30.1125C46.6544 29.5004 46.9421 28.6128 46.9421 27.4497V20.5082C46.9421 20.2546 47.1476 20.0491 47.4012 20.0491H48.7417C48.9953 20.0491 49.2008 20.2546 49.2008 20.5082V27.3396C49.2008 29.2127 48.7111 30.6451 47.7317 31.6367C46.7523 32.6161 45.3995 33.1058 43.6733 33.1058Z" fill="#33394E"/>
<path d="M55.1477 32.9038C54.8942 32.9038 54.6886 32.6983 54.6886 32.4447V20.5082C54.6886 20.2546 54.8942 20.0491 55.1477 20.0491H60.4182C61.9118 20.0491 63.081 20.4225 63.9257 21.1693C64.7704 21.9038 65.1928 22.8955 65.1928 24.1442C65.1928 25.1604 64.9174 25.999 64.3664 26.6601C63.941 27.1611 63.3988 27.549 62.7399 27.8237C62.4471 27.9458 62.3195 28.3086 62.5036 28.5668L65.0793 32.1781C65.296 32.482 65.0788 32.9038 64.7055 32.9038H63.1705C63.0221 32.9038 62.8829 32.8321 62.7967 32.7113L59.876 28.6156C59.7899 28.4947 59.6506 28.423 59.5022 28.423H57.4065C57.153 28.423 56.9474 28.6286 56.9474 28.8821V32.4447C56.9474 32.6983 56.7419 32.9038 56.4883 32.9038H55.1477ZM56.9474 25.9623C56.9474 26.2158 57.153 26.4214 57.4065 26.4214H60.2529C61.0609 26.4214 61.7037 26.2255 62.1811 25.8337C62.6586 25.4419 62.8973 24.9094 62.8973 24.236C62.8973 23.5505 62.6647 23.024 62.1995 22.6567C61.7343 22.2895 61.0793 22.1058 60.2346 22.1058H57.4065C57.153 22.1058 56.9474 22.3114 56.9474 22.5649V25.9623Z" fill="#33394E"/>
<path d="M70.9344 32.9038C70.6809 32.9038 70.4753 32.6983 70.4753 32.4447V20.5082C70.4753 20.2546 70.6809 20.0491 70.9344 20.0491H72.275C72.5285 20.0491 72.7341 20.2546 72.7341 20.5082V32.4447C72.7341 32.6983 72.5285 32.9038 72.275 32.9038H70.9344Z" fill="#33394E"/>
<path d="M83.0616 33.0875C81.1661 33.0875 79.4915 32.4981 78.038 31.3195C77.8454 31.1633 77.8261 30.88 77.9857 30.6902L78.7584 29.7713C78.9233 29.5752 79.216 29.5532 79.4182 29.7107C80.5956 30.6274 81.8285 31.0858 83.1167 31.0858C83.8146 31.0858 84.3655 30.9389 84.7695 30.6451C85.1857 30.339 85.3938 29.935 85.3938 29.433C85.3938 28.9556 85.198 28.5761 84.8062 28.2945C84.4144 28.0007 83.6432 27.7191 82.4924 27.4497C80.9988 27.0947 79.9092 26.6478 79.2236 26.1092C78.5502 25.5583 78.2136 24.7196 78.2136 23.5933C78.2136 22.4915 78.6237 21.5978 79.4439 20.9122C80.2642 20.2143 81.3171 19.8654 82.6025 19.8654C84.2166 19.8654 85.6561 20.317 86.9213 21.22C87.1193 21.3613 87.1569 21.6365 87.0161 21.8349L86.3264 22.8068C86.1774 23.0167 85.8856 23.0618 85.6713 22.9193C84.6166 22.2178 83.5815 21.8671 82.5658 21.8671C81.917 21.8671 81.4028 22.014 81.0232 22.3078C80.656 22.6017 80.4723 22.9751 80.4723 23.428C80.4723 23.93 80.6743 24.3217 81.0783 24.6033C81.4946 24.8727 82.3087 25.1542 83.5207 25.4481C84.9409 25.7909 85.9815 26.25 86.6426 26.8254C87.3159 27.4008 87.6526 28.2088 87.6526 29.2494C87.6526 30.4369 87.2302 31.3735 86.3855 32.0591C85.5408 32.7447 84.4328 33.0875 83.0616 33.0875Z" fill="#33394E"/>
<path d="M93.1553 32.9038C92.9018 32.9038 92.6962 32.6983 92.6962 32.4447V20.5082C92.6962 20.2546 92.9018 20.0491 93.1553 20.0491H94.8514C95.0075 20.0491 95.153 20.1284 95.2375 20.2597L98.6274 25.5276C98.8081 25.8085 99.2188 25.8085 99.3995 25.5276L102.789 20.2597C102.874 20.1284 103.019 20.0491 103.175 20.0491H104.872C105.125 20.0491 105.331 20.2546 105.331 20.5082V32.4447C105.331 32.6983 105.125 32.9038 104.872 32.9038H103.531C103.277 32.9038 103.072 32.6983 103.072 32.4447V25.1957C103.072 24.742 102.484 24.5633 102.231 24.9403L99.0339 29.7147C99.0211 29.7338 98.9997 29.7452 98.9767 29.7452C98.9538 29.7452 98.9323 29.7338 98.9196 29.7147L95.7592 24.9813C95.507 24.6037 94.9183 24.7822 94.9183 25.2362V32.4447C94.9183 32.6983 94.7127 32.9038 94.4592 32.9038H93.1553Z" fill="#33394E"/>
<path d="M126.587 31.1776C125.314 32.4753 123.704 33.1242 121.757 33.1242C119.811 33.1242 118.207 32.4815 116.946 31.196C115.685 29.9105 115.055 28.3373 115.055 26.4764C115.055 24.6401 115.691 23.073 116.964 21.7753C118.238 20.4776 119.848 19.8287 121.794 19.8287C123.741 19.8287 125.345 20.4714 126.606 21.7569C127.867 23.0424 128.497 24.6156 128.497 26.4764C128.497 28.3128 127.86 29.8799 126.587 31.1776ZM118.654 29.7269C119.486 30.6083 120.533 31.0491 121.794 31.0491C123.055 31.0491 124.09 30.6083 124.898 29.7269C125.718 28.8454 126.128 27.7619 126.128 26.4764C126.128 25.2032 125.712 24.1259 124.879 23.2444C124.059 22.3507 123.018 21.9038 121.757 21.9038C120.496 21.9038 119.456 22.3446 118.636 23.226C117.828 24.1075 117.424 25.191 117.424 26.4764C117.424 27.7497 117.834 28.8332 118.654 29.7269Z" fill="#1AB7E2"/>
<path d="M134.072 32.9038C133.819 32.9038 133.613 32.6983 133.613 32.4447V20.5082C133.613 20.2546 133.819 20.0491 134.072 20.0491H135.482C135.624 20.0491 135.758 20.1148 135.845 20.227L141.771 27.8763C142.039 28.2222 142.593 28.0326 142.593 27.5951V20.5082C142.593 20.2546 142.799 20.0491 143.052 20.0491H144.356C144.61 20.0491 144.815 20.2546 144.815 20.5082V32.4447C144.815 32.6983 144.61 32.9038 144.356 32.9038H143.149C143.007 32.9038 142.873 32.8382 142.786 32.726L136.657 24.819C136.389 24.4732 135.835 24.6628 135.835 25.1003V32.4447C135.835 32.6983 135.63 32.9038 135.376 32.9038H134.072Z" fill="#1AB7E2"/>
<path d="M150.968 32.9038C150.714 32.9038 150.509 32.6983 150.509 32.4447V20.5082C150.509 20.2546 150.714 20.0491 150.968 20.0491H152.309C152.562 20.0491 152.768 20.2546 152.768 20.5082V30.388C152.768 30.6415 152.973 30.8471 153.227 30.8471H159.067C159.32 30.8471 159.526 31.0526 159.526 31.3062V32.4447C159.526 32.6983 159.32 32.9038 159.067 32.9038H150.968Z" fill="#1AB7E2"/>
<path d="M164.854 32.9038C164.6 32.9038 164.395 32.6983 164.395 32.4447V20.5082C164.395 20.2546 164.6 20.0491 164.854 20.0491H166.194C166.448 20.0491 166.653 20.2546 166.653 20.5082V32.4447C166.653 32.6983 166.448 32.9038 166.194 32.9038H164.854Z" fill="#1AB7E2"/>
<path d="M172.941 32.9038C172.687 32.9038 172.482 32.6983 172.482 32.4447V20.5082C172.482 20.2546 172.687 20.0491 172.941 20.0491H174.35C174.492 20.0491 174.626 20.1148 174.713 20.227L180.64 27.8763C180.908 28.2222 181.462 28.0326 181.462 27.5951V20.5082C181.462 20.2546 181.667 20.0491 181.921 20.0491H183.225C183.478 20.0491 183.684 20.2546 183.684 20.5082V32.4447C183.684 32.6983 183.478 32.9038 183.225 32.9038H182.017C181.875 32.9038 181.741 32.8382 181.654 32.726L175.526 24.819C175.258 24.4732 174.704 24.6628 174.704 25.1003V32.4447C174.704 32.6983 174.498 32.9038 174.245 32.9038H172.941Z" fill="#1AB7E2"/>
<path d="M189.836 32.9038C189.583 32.9038 189.377 32.6983 189.377 32.4447V20.5082C189.377 20.2546 189.583 20.0491 189.836 20.0491H198.449C198.703 20.0491 198.908 20.2546 198.908 20.5082V21.61C198.908 21.8636 198.703 22.0691 198.449 22.0691H192.095C191.842 22.0691 191.636 22.2746 191.636 22.5282V24.9522C191.636 25.2058 191.842 25.4113 192.095 25.4113H197.623C197.876 25.4113 198.082 25.6169 198.082 25.8704V26.9723C198.082 27.2258 197.876 27.4314 197.623 27.4314H192.095C191.842 27.4314 191.636 27.6369 191.636 27.8905V30.4247C191.636 30.6782 191.842 30.8838 192.095 30.8838H198.541C198.794 30.8838 199 31.0893 199 31.3429V32.4447C199 32.6983 198.794 32.9038 198.541 32.9038H189.836Z" fill="#1AB7E2"/>
<path d="M48.4437 6.43215C47.123 6.30111 34.4928 6.27857 32.9746 6.27633C32.8762 6.27619 32.7828 6.30771 32.7036 6.36621L31.1834 7.48987C30.8407 7.74319 30.998 8.28616 31.4231 8.31696L37.4723 8.75532C37.7841 8.77791 37.9827 9.09879 37.8637 9.38791L35.9388 14.0659C35.8248 14.3431 36.0026 14.6534 36.2995 14.6952L37.2531 14.8293C37.3917 14.8487 37.5316 14.804 37.6331 14.7076L43.7347 8.91687C43.8156 8.8401 43.9195 8.79548 44.0309 8.79114C44.866 8.75855 48.5367 8.61345 49.9281 8.52638C51.5028 8.42786 49.8491 6.57159 48.4437 6.43215Z" fill="#1AB7E2"/>
<path d="M38.4153 0.51514C38.3567 0.494817 37.5451 0.658331 36.887 0.797615C36.6223 0.853636 36.4649 1.12628 36.5472 1.38404L37.8966 5.6141C37.9584 5.8077 38.1401 5.93767 38.3433 5.93357L42.2735 5.85441C42.6668 5.84649 42.8687 5.3802 42.6049 5.08838C40.9269 3.23204 38.4807 0.537808 38.4153 0.51514Z" fill="#1AB7E2"/>
</svg>
