<svg width="32" height="33" viewBox="0 0 32 33" fill="none" xmlns="http://www.w3.org/2000/svg">
<path d="M21.8331 4.47937C23.3789 4.48398 24.8601 5.10009 25.9531 6.19313C27.0462 7.28617 27.6623 8.76733 27.6669 10.3131V21.9794C27.6623 23.5252 27.0462 25.0063 25.9531 26.0993C24.8601 27.1924 23.3789 27.8085 21.8331 27.8131H10.1669C8.62109 27.8085 7.13993 27.1924 6.04689 26.0993C4.95385 25.0063 4.33774 23.5252 4.33313 21.9794V10.3131C4.33774 8.76733 4.95385 7.28617 6.04689 6.19313C7.13993 5.10009 8.62109 4.48398 10.1669 4.47937H21.8331ZM21.8331 2.14624H10.1669C5.675 2.14624 2 5.82124 2 10.3131V21.9794C2 26.4712 5.675 30.1462 10.1669 30.1462H21.8331C26.325 30.1462 30 26.4712 30 21.9794V10.3131C30 5.82124 26.325 2.14624 21.8331 2.14624Z" fill="#C13584"/>
<path d="M23.583 10.3132C23.2369 10.3132 22.8985 10.2106 22.6108 10.0183C22.323 9.82601 22.0987 9.5527 21.9662 9.23293C21.8338 8.91316 21.7991 8.56129 21.8666 8.22182C21.9342 7.88236 22.1008 7.57054 22.3456 7.3258C22.5903 7.08105 22.9021 6.91438 23.2416 6.84686C23.5811 6.77933 23.9329 6.81399 24.2527 6.94644C24.5725 7.0789 24.8458 7.3032 25.0381 7.59098C25.2304 7.87877 25.333 8.21711 25.333 8.56323C25.3335 8.79318 25.2886 9.02097 25.2008 9.23351C25.113 9.44605 24.9842 9.63917 24.8216 9.80177C24.659 9.96437 24.4658 10.0933 24.2533 10.181C24.0407 10.2688 23.813 10.3137 23.583 10.3132Z" fill="#C13584"/>
<path d="M16 11.4794C16.923 11.4794 17.8253 11.7531 18.5928 12.2659C19.3602 12.7787 19.9584 13.5075 20.3116 14.3603C20.6648 15.2131 20.7573 16.1514 20.5772 17.0567C20.3971 17.962 19.9526 18.7935 19.3 19.4462C18.6473 20.0989 17.8157 20.5434 16.9105 20.7234C16.0052 20.9035 15.0668 20.8111 14.2141 20.4579C13.3613 20.1046 12.6324 19.5065 12.1196 18.739C11.6068 17.9716 11.3331 17.0693 11.3331 16.1462C11.3344 14.9089 11.8266 13.7226 12.7015 12.8477C13.5764 11.9728 14.7627 11.4807 16 11.4794ZM16 9.14624C14.6155 9.14624 13.2622 9.55678 12.111 10.326C10.9599 11.0951 10.0627 12.1884 9.53285 13.4675C9.00303 14.7465 8.86441 16.154 9.13451 17.5119C9.4046 18.8697 10.0713 20.117 11.0503 21.096C12.0292 22.075 13.2765 22.7416 14.6344 23.0117C15.9922 23.2818 17.3997 23.1432 18.6788 22.6134C19.9579 22.0836 21.0511 21.1864 21.8203 20.0352C22.5894 18.8841 23 17.5307 23 16.1462C23 14.2897 22.2625 12.5092 20.9497 11.1965C19.637 9.88374 17.8565 9.14624 16 9.14624Z" fill="#C13584"/>
</svg>
