<svg width="51" height="51" viewBox="0 0 51 51" fill="none" xmlns="http://www.w3.org/2000/svg">
<circle cx="25.5" cy="25.5" r="25.5" fill="white"/>
<path d="M35.6666 38V35.3333C35.6666 33.9188 35.1047 32.5623 34.1045 31.5621C33.1044 30.5619 31.7478 30 30.3333 30H19.6666C18.2522 30 16.8956 30.5619 15.8954 31.5621C14.8952 32.5623 14.3333 33.9188 14.3333 35.3333V38" stroke="#1AB7E2" stroke-width="2" stroke-linecap="round" stroke-linejoin="round"/>
<path d="M25 24.6667C27.9455 24.6667 30.3334 22.2789 30.3334 19.3333C30.3334 16.3878 27.9455 14 25 14C22.0545 14 19.6667 16.3878 19.6667 19.3333C19.6667 22.2789 22.0545 24.6667 25 24.6667Z" stroke="#1AB7E2" stroke-width="2" stroke-linecap="round" stroke-linejoin="round"/>
</svg>
